<?xml version="1.0" encoding="utf-8"?>
<!-- Generator: Adobe Illustrator 26.2.1, SVG Export Plug-In . SVG Version: 6.00 Build 0)  -->
<svg version="1.1" id="b" xmlns="http://www.w3.org/2000/svg" xmlns:xlink="http://www.w3.org/1999/xlink" x="0px" y="0px"
	 viewBox="0 0 48 48" style="enable-background:new 0 0 48 48;" xml:space="preserve">
<style type="text/css">
	.st0{opacity:0.46;}
	.st1{fill:none;}
	.st2{fill:none;stroke:#231F20;stroke-width:1.25;stroke-miterlimit:10;}
</style>
<g>
	<g id="c" transform="translate(0)">
		<g id="Group_14225" class="st0">
			<path id="Path_1386" class="st1" d="M0,0v48h48V0H0z M45,45H3V3h42V45z"/>
		</g>
	</g>
	<g id="d" transform="translate(2.99 3.096)">
		<g id="Group_14227">
			<line id="Line_103" class="st2" x1="31" y1="40.1" x2="30.7" y2="39.9"/>
			<line id="Line_104" class="st2" x1="24" y1="35.1" x2="7.5" y2="23.1"/>
			<path id="Path_1387" class="st2" d="M31.5,37.5c0,0.9-0.3,1.7-0.8,2.4c-0.7,1.1-2,1.8-3.4,1.8c-2.4-0.1-4.2-2.1-4.1-4.5
				c0-0.8,0.3-1.6,0.7-2.2c0.7-1.1,2-1.8,3.4-1.8C29.7,33.2,31.5,35.2,31.5,37.5L31.5,37.5z"/>
			<line id="Line_105" class="st2" x1="24" y1="6.7" x2="7.5" y2="18.3"/>
			<line id="Line_106" class="st2" x1="31" y1="1.8" x2="30.8" y2="1.9"/>
			<path id="Path_1388" class="st2" d="M31.5,4.3c0,2.3-1.8,4.2-4.1,4.3c-1.4,0-2.6-0.7-3.4-1.9c-0.5-0.7-0.7-1.5-0.7-2.4
				C23.2,2,25.1,0.1,27.4,0c0,0,0,0,0,0c1.4,0,2.7,0.7,3.4,1.9C31.3,2.6,31.5,3.4,31.5,4.3L31.5,4.3z"/>
			<path id="Path_1389" class="st2" d="M8.2,20.7c0,0.9-0.2,1.7-0.8,2.4c-0.7,1.1-2,1.8-3.4,1.8c-2.4-0.1-4.2-2.1-4.1-4.5
				c0.1-2.2,1.9-4,4.1-4.1c1.4,0,2.7,0.7,3.4,1.9C8,19,8.2,19.8,8.2,20.7L8.2,20.7z"/>
		</g>
	</g>
</g>
</svg>
